{"buffers":[{"uri":"female_specialcorrupted_cape_o.bin","byteLength":4424636},{"byteLength":29784,"extensions":{"EXT_meshopt_compression":{"fallback":true}}}],"asset":{"version":"2.0","generator":"gltfpack 0.18"},"extensionsUsed":["KHR_mesh_quantization","EXT_meshopt_compression","KHR_texture_transform"],"extensionsRequired":["KHR_mesh_quantization","EXT_meshopt_compression"],"bufferViews":[{"buffer":0,"byteOffset":0,"byteLength":1843547},{"buffer":0,"byteOffset":1843548,"byteLength":2568766},{"buffer":1,"byteOffset":0,"byteLength":9312,"byteStride":8,"target":34962,"extensions":{"EXT_meshopt_compression":{"buffer":0,"byteOffset":4412316,"byteLength":4721,"byteStride":8,"mode":"ATTRIBUTES","count":1164}}},{"buffer":1,"byteOffset":9312,"byteLength":4656,"byteStride":4,"target":34962,"extensions":{"EXT_meshopt_compression":{"buffer":0,"byteOffset":4417040,"byteLength":2417,"byteStride":4,"mode":"ATTRIBUTES","filter":"OCTAHEDRAL","count":1164}}},{"buffer":1,"byteOffset":13968,"byteLength":4656,"byteStride":4,"target":34962,"extensions":{"EXT_meshopt_compression":{"buffer":0,"byteOffset":4419460,"byteLength":2967,"byteStride":4,"mode":"ATTRIBUTES","count":1164}}},{"buffer":1,"byteOffset":18624,"byteLength":11160,"target":34963,"extensions":{"EXT_meshopt_compression":{"buffer":0,"byteOffset":4422428,"byteLength":2208,"byteStride":2,"mode":"TRIANGLES","count":5580}}}],"accessors":[{"bufferView":2,"byteOffset":0,"componentType":5123,"count":1164,"type":"VEC3","min":[0,0,0],"max":[10010,16383,2561]},{"bufferView":3,"byteOffset":0,"componentType":5120,"count":1164,"type":"VEC3","normalized":true},{"bufferView":4,"byteOffset":0,"componentType":5123,"count":1164,"type":"VEC2","normalized":true},{"bufferView":5,"byteOffset":0,"componentType":5123,"count":5580,"type":"SCALAR"}],"samplers":[{"magFilter":9729,"minFilter":9986}],"images":[{"bufferView":0,"mimeType":"image/png"},{"bufferView":1,"mimeType":"image/png"}],"textures":[{"sampler":0,"source":0},{"sampler":0,"source":1}],"materials":[{"name":"chest","pbrMetallicRoughness":{"baseColorTexture":{"index":0,"extensions":{"KHR_texture_transform":{"offset":[0.590215981,0.0079960227],"scale":[6.40967512,8.92537022]}}},"metallicFactor":0},"normalTexture":{"index":1,"extensions":{"KHR_texture_transform":{"offset":[0.590215981,0.0079960227],"scale":[6.40967512,8.92537022]}}}}],"meshes":[{"primitives":[{"attributes":{"POSITION":0,"NORMAL":1,"TEXCOORD_0":2},"indices":3,"material":0}]}],"nodes":[{"mesh":0,"translation":[-0.324797988,0.339434952,0.130364075],"scale":[7.08183434e-05,7.08183434e-05,7.08183434e-05]}],"scenes":[{"nodes":[0]}],"scene":0}