{"buffers":[{"uri":"female_specialcorrupted_forearms_hands_o.bin","byteLength":4480188},{"byteLength":150432,"extensions":{"EXT_meshopt_compression":{"fallback":true}}}],"asset":{"version":"2.0","generator":"gltfpack 0.18"},"extensionsUsed":["KHR_mesh_quantization","EXT_meshopt_compression","KHR_texture_transform"],"extensionsRequired":["KHR_mesh_quantization","EXT_meshopt_compression"],"bufferViews":[{"buffer":0,"byteOffset":0,"byteLength":1843547},{"buffer":0,"byteOffset":1843548,"byteLength":2568766},{"buffer":1,"byteOffset":0,"byteLength":47016,"byteStride":8,"target":34962,"extensions":{"EXT_meshopt_compression":{"buffer":0,"byteOffset":4412316,"byteLength":24775,"byteStride":8,"mode":"ATTRIBUTES","count":5877}}},{"buffer":1,"byteOffset":47016,"byteLength":23508,"byteStride":4,"target":34962,"extensions":{"EXT_meshopt_compression":{"buffer":0,"byteOffset":4437092,"byteLength":17898,"byteStride":4,"mode":"ATTRIBUTES","count":5877}}},{"buffer":1,"byteOffset":70524,"byteLength":23508,"byteStride":4,"target":34962,"extensions":{"EXT_meshopt_compression":{"buffer":0,"byteOffset":4454992,"byteLength":14590,"byteStride":4,"mode":"ATTRIBUTES","count":5877}}},{"buffer":1,"byteOffset":94032,"byteLength":56400,"target":34963,"extensions":{"EXT_meshopt_compression":{"buffer":0,"byteOffset":4469584,"byteLength":10602,"byteStride":2,"mode":"TRIANGLES","count":28200}}}],"accessors":[{"bufferView":2,"byteOffset":0,"componentType":5123,"count":5877,"type":"VEC3","min":[0,0,0],"max":[16383,11969,5301]},{"bufferView":3,"byteOffset":0,"componentType":5120,"count":5877,"type":"VEC3","normalized":true},{"bufferView":4,"byteOffset":0,"componentType":5123,"count":5877,"type":"VEC2","normalized":true},{"bufferView":5,"byteOffset":0,"componentType":5123,"count":28200,"type":"SCALAR"}],"samplers":[{"magFilter":9729,"minFilter":9986}],"images":[{"bufferView":0,"mimeType":"image/png"},{"bufferView":1,"mimeType":"image/png"}],"textures":[{"sampler":0,"source":0},{"sampler":0,"source":1}],"materials":[{"name":"chest","pbrMetallicRoughness":{"baseColorTexture":{"index":0,"extensions":{"KHR_texture_transform":{"offset":[0.00294000003,0.00385099649],"scale":[15.910553,15.8869324]}}},"metallicFactor":0},"normalTexture":{"index":1,"extensions":{"KHR_texture_transform":{"offset":[0.00294000003,0.00385099649],"scale":[15.910553,15.8869324]}}}}],"meshes":[{"primitives":[{"attributes":{"POSITION":0,"NORMAL":1,"TEXCOORD_0":2},"indices":3,"material":0}]}],"nodes":[{"mesh":0,"translation":[-0.674956977,0.671212912,-0.180872932],"scale":[8.2472623e-05,8.2472623e-05,8.2472623e-05]}],"scenes":[{"nodes":[0]}],"scene":0}